<svg width="54" height="29" viewBox="0 0 54 29" fill="none" xmlns="http://www.w3.org/2000/svg">
<path d="M5.32 7.2C5.42 7.34 6.88 9.62 9.68 14.04C10.74 13.98 11.16 13.96 11.42 13.96L12.78 13.98H13.24V13.22C12.48 13.24 12.38 13.14 11.42 11.66C10.08 9.6 8.66 7.48 8.34 7C10.26 6.32 11.34 5.04 11.34 3.46C11.34 2.38 10.8 1.4 9.98 0.98C9.4 0.7 8.8 0.6 7.52 0.6C7.1 0.6 6.54 0.619999 5.96 0.639999C4.54 0.68 3.38 0.7 2.36 0.7C1.96 0.7 1.46 0.68 0.34 0.639999V1.44L0.68 1.46C1.36 1.52 1.64 1.58 1.76 1.76C1.96 2.06 2.04 3.54 2.04 6.62C2.04 11.06 1.98 12.78 1.8 12.98C1.66 13.14 1.36 13.2 0.34 13.24V14.04C1.82 14 2.56 13.98 3.82 13.98C4.92 13.98 5.42 14 6.34 14.06V13.24L6.08 13.22C5.34 13.18 5.12 13.12 5 12.98C4.84 12.74 4.78 11.88 4.78 9.36C4.78 4.74 4.8 3.04 4.86 1.78C5.36 1.7 5.66 1.68 5.94 1.68C7.58 1.68 8.48 2.54 8.48 4.12C8.48 5.72 7.38 6.9 5.88 6.9C5.82 6.9 5.76 6.9 5.64 6.88L5.46 6.86L5.32 7.2ZM21.1772 0.299999C18.5372 0.299999 16.7772 0.98 15.3972 2.54C14.3172 3.76 13.7572 5.4 13.7572 7.38C13.7572 11.92 16.2772 14.44 20.8172 14.44C25.2772 14.44 28.1172 11.54 28.1172 6.98C28.1172 2.78 25.5372 0.299999 21.1772 0.299999ZM20.8172 1.4C22.2772 1.4 23.2772 1.88 23.9572 2.88C24.6972 3.96 25.0972 5.58 25.0972 7.48C25.0972 9.14 24.7972 10.52 24.1972 11.58C23.5772 12.72 22.4772 13.32 21.0172 13.32C18.2972 13.32 16.7772 11.06 16.7772 7C16.7772 3.32 18.1572 1.4 20.8172 1.4ZM30.2975 10.1C30.2975 11.4 30.1975 12.4 29.9775 13.42C31.3175 14.14 32.5375 14.44 34.0375 14.44C37.3975 14.44 39.6375 12.5 39.6375 9.6C39.6375 8.32 39.1775 7.3 38.3575 6.82C37.7975 6.48 37.4175 6.36 35.4775 5.92C34.1575 5.62 33.7775 5.5 33.3575 5.24C32.8375 4.92 32.5175 4.32 32.5175 3.62C32.5175 2.3 33.5375 1.44 35.0975 1.44C36.2575 1.44 37.3175 1.9 37.5975 2.52C37.7175 2.78 37.7575 3.2 37.7775 4.12H38.5575C38.5575 2.78 38.6775 1.82 38.9175 1.12C37.7975 0.559999 36.7175 0.339999 35.2175 0.339999C33.5575 0.339999 32.2775 0.759999 31.4175 1.56C30.6175 2.32 30.1375 3.52 30.1375 4.72C30.1375 5.86 30.5775 6.88 31.3375 7.44C31.8775 7.84 32.4775 8.06 33.9775 8.36C35.3375 8.64 35.9175 8.86 36.3775 9.24C36.7975 9.6 37.0575 10.2 37.0575 10.86C37.0575 12.32 35.9375 13.3 34.2975 13.3C33.2575 13.3 32.3175 12.94 31.5975 12.28C31.2975 12 31.1775 11.76 31.1775 11.4L31.1375 10.36V10.1H30.2975ZM41.6308 14.06C43.2108 14 43.3308 14 44.3308 14C45.6508 14 46.5508 14 47.6708 14.04L49.3308 14.06C50.0708 14.06 50.3908 14.04 51.0908 14C51.0908 13.16 51.2108 11.52 51.3508 10.74H50.5708C50.2108 12.42 50.1708 12.56 50.0508 12.68C49.8708 12.84 48.9108 12.92 47.2908 12.92C46.8108 12.92 46.4708 12.92 45.5108 12.88C45.4308 12.02 45.4308 11.6 45.4308 10.14C45.4308 8.84 45.4308 8.38 45.4508 7.64C46.0108 7.6 46.3308 7.58 46.8308 7.58C47.6308 7.58 48.3308 7.62 48.5708 7.68C48.8708 7.78 48.9708 8 48.9908 8.84L49.0108 9.28H49.8508C49.8108 7.9 49.7908 7.46 49.7908 7.12C49.7908 6.94 49.7908 6.94 49.8508 5.02H49.0708L49.0508 5.44C49.0108 6.08 48.9308 6.38 48.7508 6.48C48.5508 6.58 48.4308 6.58 46.7708 6.58C46.1508 6.58 45.8908 6.56 45.4308 6.52V5.98L45.4908 3.3V1.78C46.0908 1.76 46.1908 1.76 47.3708 1.76C49.3108 1.76 49.7908 1.82 49.9908 2.1C50.1108 2.24 50.1308 2.42 50.1308 3.56H50.8708C50.8908 2.64 51.0108 1.5 51.1908 0.68C50.6908 0.639999 49.7708 0.639999 47.6708 0.639999C47.3308 0.639999 46.6908 0.639999 45.7308 0.659999C45.1308 0.68 44.6708 0.68 44.3308 0.68C43.5108 0.68 42.7508 0.659999 41.0908 0.6V1.42C42.3108 1.46 42.5708 1.58 42.6508 2.06C42.6708 2.22 42.7108 5.8 42.7108 7.64C42.7108 10.6 42.6508 12.84 42.5508 13C42.4708 13.12 42.1308 13.34 41.6308 13.56V14.06ZM0.2465 28.0435C0.9135 28.0145 2.407 27.9855 2.9145 27.9855C3.6975 27.9855 3.9875 28 4.785 28.0435V27.4635C3.741 27.4345 3.5525 27.362 3.4945 27.043C3.451 26.7385 3.4075 24.5635 3.4075 22.4465C3.4075 20.4745 3.422 19.9815 3.48 19.126C3.7555 19.0535 3.9295 19.039 4.2775 19.039C4.843 19.039 5.1765 19.155 5.452 19.4305C5.771 19.764 5.9595 20.286 5.9595 20.924C5.9595 22.026 5.365 22.809 4.524 22.809C4.3645 22.809 4.234 22.78 4.002 22.693L3.8425 22.8815C3.973 23.0845 4.002 23.128 4.089 23.36C4.4225 23.447 4.611 23.476 4.872 23.476C6.67 23.476 8.0185 22.171 8.0185 20.431C8.0185 18.923 7.134 18.2705 5.104 18.2705C4.756 18.2705 4.4515 18.285 4.1035 18.2995C2.9145 18.3575 2.9145 18.3575 2.2765 18.3575C1.914 18.3575 1.247 18.343 0.261 18.2995V18.894C0.9715 18.9375 1.16 18.981 1.2615 19.0825C1.392 19.242 1.4355 19.9815 1.4355 22.49C1.4355 25.2595 1.4065 26.8255 1.3485 27.0575C1.276 27.362 1.1745 27.4055 0.4495 27.449L0.2465 27.4635V28.0435ZM8.67893 28.0435C10.2304 28 10.8104 27.9855 11.0424 27.9855C11.5789 27.9855 11.9414 28 13.1014 28.0435V27.4635C12.3764 27.449 12.1879 27.4055 12.0864 27.2895C11.9269 27.101 11.8979 26.579 11.8979 23.824V23.389C12.8404 23.36 13.1884 23.36 14.0584 23.36C14.7399 23.36 15.1024 23.36 16.0449 23.389C16.0304 25.361 16.0014 26.579 15.9724 27.014C15.8854 27.3765 15.8564 27.391 15.0299 27.449L14.8414 27.4635V28.0435C15.6969 28 16.2189 27.9855 16.9294 27.9855C17.6109 27.9855 18.0894 28 19.2494 28.0435V27.4635L19.0319 27.449C18.3214 27.42 18.1909 27.3765 18.1329 27.159C18.0459 26.84 18.0169 26.0425 18.0169 23.679C18.0169 22.0695 18.0169 21.5185 18.0459 19.938C18.0459 19.1695 18.0604 19.1405 18.1619 19.0535C18.2779 18.952 18.5099 18.923 19.2639 18.865V18.2705C17.9444 18.3285 17.4369 18.343 16.8424 18.343C16.1754 18.343 15.7404 18.3285 14.8414 18.285V18.8795C15.5084 18.894 15.7839 18.952 15.8854 19.0825C16.0014 19.184 16.0449 20.083 16.0594 22.519C14.9574 22.548 14.5369 22.5625 13.8264 22.5625C13.2029 22.5625 12.8114 22.5625 11.8979 22.5335C11.8979 20.0105 11.8979 19.7495 11.9414 19.358C11.9704 18.981 12.1154 18.9375 13.1014 18.8795V18.2705C12.1444 18.343 11.5354 18.3575 10.5494 18.3575C9.73743 18.3575 9.38943 18.343 8.66443 18.2995V18.894H8.88193C9.65043 18.923 9.79543 19.01 9.80993 19.445C9.85343 19.996 9.89693 22.0115 9.89693 22.925C9.89693 26.3035 9.85343 27.159 9.70843 27.304C9.60693 27.391 9.49093 27.42 8.67893 27.4635V28.0435ZM27.7707 18.285C27.4662 18.894 27.3357 19.155 26.5382 20.692C25.9582 21.794 25.7262 22.258 25.3782 22.9975C23.5947 19.4885 22.8697 18.4155 22.1302 18.169C21.5357 18.3575 20.2887 18.5895 19.7522 18.604V19.155L19.8682 19.1405H19.9842C20.3902 19.1405 20.6802 19.271 20.9702 19.5755C21.3907 20.054 22.2752 21.359 23.2757 23.0265C23.8122 23.9255 23.8557 24.027 23.8557 24.491V24.8535V25.1725V25.4625V26.0135C23.8557 26.9995 23.7977 27.2895 23.5802 27.3475C23.4642 27.391 23.1597 27.4345 22.5942 27.4635V28.0435C23.6527 28 24.0442 27.9855 24.8562 27.9855C25.5957 27.9855 26.1612 28 27.0167 28.0435V27.4055C26.2482 27.4055 26.0452 27.3765 25.9437 27.275C25.7842 27.1155 25.7407 26.4195 25.7407 24.3025C25.7407 23.6065 25.7697 23.534 26.5817 22.2C26.8427 21.765 27.1037 21.3445 27.3502 20.924C28.1767 19.5175 28.5392 18.981 28.8727 18.604V18.285H27.7707ZM29.6615 25.1725C29.6615 26.115 29.589 26.84 29.4295 27.5795C30.401 28.1015 31.2855 28.319 32.373 28.319C34.809 28.319 36.433 26.9125 36.433 24.81C36.433 23.882 36.0995 23.1425 35.505 22.7945C35.099 22.548 34.8235 22.461 33.417 22.142C32.46 21.9245 32.1845 21.8375 31.88 21.649C31.503 21.417 31.271 20.982 31.271 20.4745C31.271 19.5175 32.0105 18.894 33.1415 18.894C33.9825 18.894 34.751 19.2275 34.954 19.677C35.041 19.8655 35.07 20.17 35.0845 20.837H35.65C35.65 19.8655 35.737 19.1695 35.911 18.662C35.099 18.256 34.316 18.0965 33.2285 18.0965C32.025 18.0965 31.097 18.401 30.4735 18.981C29.8935 19.532 29.5455 20.402 29.5455 21.272C29.5455 22.0985 29.8645 22.838 30.4155 23.244C30.807 23.534 31.242 23.6935 32.3295 23.911C33.3155 24.114 33.736 24.2735 34.0695 24.549C34.374 24.81 34.5625 25.245 34.5625 25.7235C34.5625 26.782 33.7505 27.4925 32.5615 27.4925C31.8075 27.4925 31.126 27.2315 30.604 26.753C30.3865 26.55 30.2995 26.376 30.2995 26.115L30.2705 25.361V25.1725H29.6615ZM37.4866 28.0435C38.2696 28.0145 38.6176 28 39.4731 28C40.2416 28 40.7491 28.0145 41.8946 28.0435V27.4635C41.0971 27.42 40.9376 27.391 40.8361 27.2605C40.7056 27.0865 40.6911 26.7965 40.6911 23.0845C40.6911 20.7935 40.7346 19.271 40.7926 19.126C40.8651 18.981 41.0536 18.9375 41.9091 18.8795V18.2995C41.3146 18.343 40.9086 18.3575 40.1111 18.3575C38.9801 18.3575 38.4146 18.343 37.5011 18.2705V18.8795L37.7766 18.894C38.4001 18.9375 38.5741 18.9955 38.6176 19.213C38.6756 19.416 38.6901 20.5325 38.6901 23.0845C38.6901 26.405 38.6611 27.101 38.5161 27.2895C38.4436 27.391 38.2841 27.42 37.6316 27.449L37.4866 27.4635V28.0435ZM48.3597 18.0675C46.4457 18.0675 45.1697 18.5605 44.1692 19.6915C43.3862 20.576 42.9802 21.765 42.9802 23.2005C42.9802 26.492 44.8072 28.319 48.0987 28.319C51.3322 28.319 53.3912 26.2165 53.3912 22.9105C53.3912 19.8655 51.5207 18.0675 48.3597 18.0675ZM48.0987 18.865C49.1572 18.865 49.8822 19.213 50.3752 19.938C50.9117 20.721 51.2017 21.8955 51.2017 23.273C51.2017 24.4765 50.9842 25.477 50.5492 26.2455C50.0997 27.072 49.3022 27.507 48.2437 27.507C46.2717 27.507 45.1697 25.8685 45.1697 22.925C45.1697 20.257 46.1702 18.865 48.0987 18.865Z" fill="black"/>
</svg>
