<svg width="35" height="35" viewBox="0 0 35 35" fill="none" xmlns="http://www.w3.org/2000/svg">
<path d="M13.6509 10.5969L11.9659 12.0108C9.80658 13.8227 12.9385 19.1932 14.4637 21.0109C15.9889 22.8286 20.734 26.8455 22.8933 25.0336L24.5783 23.6197C24.9714 23.2898 25.0304 22.7137 24.7105 22.3325L22.6254 19.8476C22.3055 19.4664 21.728 19.4244 21.3348 19.7543L20.4952 20.4588C19.969 20.9003 19.238 21.0511 18.6808 20.6492C17.8267 20.0332 17.1009 19.1424 16.9313 18.9403C16.7617 18.7382 16.0105 17.8688 15.5522 16.9206C15.2532 16.3022 15.5286 15.6084 16.0548 15.1669L16.8944 14.4623C17.2875 14.1325 17.3465 13.5564 17.0266 13.1752L14.9415 10.6903C14.6216 10.309 14.044 10.2671 13.6509 10.5969Z" stroke="black" stroke-width="1.5"/>
</svg>
