<svg width="16" height="18" viewBox="0 0 16 18" fill="none" xmlns="http://www.w3.org/2000/svg">
<path d="M3.65091 1.59694L1.96588 3.01084C-0.193419 4.82271 2.93849 10.1932 4.46369 12.0109C5.9889 13.8286 10.734 17.8455 12.8933 16.0336L14.5783 14.6197C14.9714 14.2898 15.0304 13.7137 14.7105 13.3325L12.6254 10.8476C12.3055 10.4664 11.728 10.4244 11.3348 10.7543L10.4952 11.4588C9.96901 11.9003 9.23797 12.0511 8.68083 11.6492C7.82667 11.0332 7.10089 10.1424 6.93131 9.94031C6.76173 9.73822 6.01052 8.86878 5.55215 7.92062C5.25317 7.30217 5.52855 6.60841 6.05477 6.16686L6.89437 5.46235C7.2875 5.13248 7.34646 4.55637 7.02659 4.17516L4.9415 1.69025C4.62162 1.30903 4.04403 1.26707 3.65091 1.59694Z" stroke="white" stroke-width="1.5"/>
</svg>
