<svg width="35" height="35" viewBox="0 0 35 35" fill="none" xmlns="http://www.w3.org/2000/svg">
<path d="M13.6509 9.59694L11.9659 11.0108C9.80658 12.8227 12.9385 18.1932 14.4637 20.0109C15.9889 21.8286 20.734 25.8455 22.8933 24.0336L24.5783 22.6197C24.9714 22.2898 25.0304 21.7137 24.7105 21.3325L22.6254 18.8476C22.3055 18.4664 21.728 18.4244 21.3348 18.7543L20.4952 19.4588C19.969 19.9003 19.238 20.0511 18.6808 19.6492C17.8267 19.0332 17.1009 18.1424 16.9313 17.9403C16.7617 17.7382 16.0105 16.8688 15.5522 15.9206C15.2532 15.3022 15.5286 14.6084 16.0548 14.1669L16.8944 13.4623C17.2875 13.1325 17.3465 12.5564 17.0266 12.1752L14.9415 9.69025C14.6216 9.30903 14.044 9.26707 13.6509 9.59694Z" stroke="white" stroke-width="1.5"/>
</svg>
